<svg width="811" height="395" viewBox="0 0 811 395" fill="none" xmlns="http://www.w3.org/2000/svg">
<path d="M231.558 327.493C231.558 364.314 252.763 394.064 278.844 394.064H326.131C352.211 394.064 373.173 364.07 373.173 327.493C373.173 290.671 351.968 260.921 325.887 260.921C325.399 260.921 325.156 260.921 324.668 260.921H278.844C252.52 260.921 231.558 290.915 231.558 327.493Z" fill="#442B2B"/>
<path d="M602.049 326.761C602.049 363.583 623.255 393.332 649.336 393.332H696.622C722.703 393.332 743.665 363.339 743.665 326.761C743.665 289.939 722.459 260.189 696.379 260.189C695.891 260.189 695.647 260.189 695.16 260.189H649.336C623.011 260.189 602.049 289.939 602.049 326.761Z" fill="#402B2B"/>
<path d="M0 228.489L14.3809 196.3H57.5238L58.0112 318.226L0.24376 318.47L0 228.489Z" fill="black"/>
<path d="M228.388 321.152L418.752 320.665L396.815 307.74L252.762 307.984L228.388 321.152Z" fill="#442B2B"/>
<path d="M48.7486 212.638L48.9923 334.808L203.527 334.564L252.763 307.984L396.816 307.74L441.178 334.077L755.609 333.345C760.727 333.345 764.871 329.199 764.871 324.079L764.627 211.175L48.7486 212.638Z" fill="#822626"/>
<path d="M385.604 240.437L632.274 239.95L631.787 16.3381C631.787 7.31557 624.474 0 615.212 0L384.873 0.487733L385.604 240.437Z" fill="#EF5F53"/>
<path d="M0.975061 241.413L385.361 240.681L384.873 0.731659L16.8185 1.46318C7.79991 1.46318 0.487579 8.7787 0.487579 18.045L0.975061 241.413Z" fill="#F39476"/>
<path d="M570.851 326.761C570.851 363.583 549.889 393.332 523.808 393.332H476.765V370.898C459.459 370.898 445.322 351.146 445.322 326.761C445.322 302.376 459.216 282.624 476.521 282.624V260.189H523.564C549.645 260.433 570.607 290.183 570.851 326.761Z" fill="#402B2B"/>
<path d="M437.766 327.249C437.766 357.486 455.072 381.871 476.521 381.628C497.971 381.628 515.033 357.242 515.033 327.005C515.033 296.767 497.727 272.382 476.278 272.626C455.072 272.626 437.766 297.011 437.766 327.249Z" fill="#4B2A2A"/>
<path opacity="0.32" d="M476.521 363.095C490.659 363.095 501.871 347.001 501.871 327.005C501.871 307.009 490.415 291.159 476.278 291.159C462.14 291.159 450.928 307.253 450.928 327.249C450.928 347.244 462.384 363.095 476.521 363.095ZM476.521 305.79C484.809 305.79 491.634 315.3 491.634 327.005C491.634 338.71 484.809 348.464 476.521 348.464C468.234 348.464 461.409 338.953 461.409 327.249C461.409 315.3 467.99 305.79 476.521 305.79Z" fill="#E14841"/>
<path d="M476.521 393.576C502.602 393.576 523.564 363.582 523.564 327.005C523.564 290.427 502.358 260.433 476.277 260.433C450.197 260.433 429.235 290.427 429.235 327.005C429.235 363.582 450.684 393.82 476.521 393.576ZM476.277 272.626C497.727 272.626 515.033 297.011 515.033 327.005C515.033 357.242 497.971 381.627 476.521 381.627C455.072 381.627 437.766 357.242 437.766 327.249C437.766 297.011 455.072 272.626 476.277 272.626Z" fill="#402B2B"/>
<path opacity="0.32" d="M469.94 327.005C469.94 321.884 472.865 317.982 476.278 317.982C479.69 317.982 482.615 322.128 482.859 327.005C482.859 332.126 479.934 336.027 476.521 336.027C472.865 336.271 469.94 332.126 469.94 327.005Z" fill="#E14841"/>
<path d="M200.115 327.736C200.115 364.558 179.153 394.308 153.072 394.308H106.029V371.873C88.7234 371.873 74.5862 352.121 74.5862 327.736C74.5862 303.351 88.4797 283.599 105.786 283.599V261.165H152.828C178.909 261.165 200.115 290.915 200.115 327.736Z" fill="black"/>
<path d="M795.584 144.604C795.584 145.579 796.315 146.311 797.046 146.555C798.996 147.043 806.308 147.042 808.502 146.311C809.477 146.067 810.452 145.336 810.452 144.116C811.183 124.608 811.183 105.588 810.452 87.5428C810.452 86.3236 809.477 85.592 808.502 85.3482C806.065 84.6166 797.534 84.1289 794.852 85.1043C793.877 85.3481 793.146 86.3236 793.146 87.299C792.659 105.832 793.39 124.852 795.584 144.604Z" fill="#CD2827"/>
<path d="M783.64 161.917C783.884 161.917 784.127 161.917 784.615 161.674L801.189 153.383C805.089 151.432 807.527 147.53 807.527 143.141L807.283 81.9342C807.283 79.4957 805.333 77.5449 802.896 77.5449H757.315C756.097 77.5449 755.365 78.5203 755.365 79.4957C755.365 80.7149 756.34 81.4464 757.315 81.4464H802.896C803.139 81.4464 803.139 81.6903 803.139 81.6903L803.383 142.897C803.383 145.823 801.677 148.262 799.239 149.481L782.665 157.772C781.69 158.26 781.202 159.479 781.69 160.454C782.177 161.674 782.909 161.917 783.64 161.917Z" fill="#822626"/>
<path d="M418.753 239.95C418.753 239.95 425.091 239.95 434.841 239.95H473.596C502.602 239.95 509.426 254.337 527.22 289.695L583.525 289.451C583.525 289.451 583.525 285.306 583.525 278.234L798.508 277.747C799.483 259.946 801.433 223.856 801.433 189.716C801.433 188.497 801.433 187.522 801.433 186.302C801.433 176.548 799.727 165.819 796.802 155.09C785.346 113.147 756.34 68.5223 744.397 52.1842C740.497 46.8195 737.084 42.1864 734.159 38.0409C725.872 27.0676 720.266 21.459 709.785 21.459L449.221 22.1906C443.859 22.1906 438.984 25.8483 437.522 30.9692C415.097 113.391 418.51 176.061 418.753 239.95ZM638.368 51.2088C638.124 49.9896 639.099 49.0142 640.317 49.0142L719.535 48.7703C724.166 48.7703 728.797 51.2089 731.722 55.3543C762.677 97.5406 775.108 136.069 779.74 158.26L784.614 181.669C785.346 185.083 783.152 187.766 779.74 187.766H760.484C757.315 187.766 753.903 186.302 751.465 183.864L711.978 146.067C707.591 141.922 701.741 139.483 696.135 139.483H648.849L638.368 51.2088Z" fill="#CD2827"/>
<path d="M597.418 155.821C599.125 163.624 601.075 171.671 602.781 180.206C604 186.059 609.118 190.204 614.968 190.448C691.991 193.13 755.853 193.374 801.433 189.96C801.433 188.741 801.433 187.766 801.433 186.546C801.433 176.792 799.727 166.063 796.802 155.333L597.418 155.821Z" fill="#822626"/>
<path opacity="0.75" d="M455.072 49.2581L534.289 49.0142C538.92 49.0142 543.063 51.4527 545.257 55.5982C567.438 97.7845 572.069 136.313 572.069 158.503V181.913C572.069 185.327 569.388 188.01 565.975 188.01H546.72C543.551 188.01 540.382 186.546 538.432 184.108L506.745 146.311C503.089 142.165 497.971 139.483 492.365 139.727H445.078L452.634 51.4527C452.634 50.2334 453.609 49.2581 455.072 49.2581Z" fill="#402B2B"/>
<path d="M418.753 239.95C418.753 239.95 425.091 239.95 434.841 239.95H473.596C502.602 239.95 509.426 254.337 527.22 289.695L583.525 289.451C583.525 289.451 583.525 285.306 583.525 278.234L798.508 277.747C799.483 259.946 801.433 223.856 801.433 189.716C755.853 193.13 691.748 193.13 614.968 190.204C609.118 189.96 603.999 185.815 602.781 179.962C601.075 171.428 599.125 163.137 597.418 155.577C586.937 110.952 575.481 79.0079 560.369 44.381C559.15 41.6987 561.1 38.5286 564.025 38.5286L734.159 38.0409C725.872 27.0676 720.266 21.459 709.785 21.459L449.221 22.1906C443.859 22.1906 438.984 25.8483 437.522 30.9692C415.097 113.391 418.51 176.061 418.753 239.95ZM444.834 139.727L452.39 51.4527C452.39 50.2335 453.609 49.2581 454.828 49.2581L534.045 49.0142C538.676 49.0142 542.819 51.4527 545.013 55.5982C567.194 97.7845 571.825 136.313 571.825 158.503V181.913C571.825 185.327 569.144 188.009 565.732 188.009H546.476C543.307 188.009 540.138 186.546 538.188 184.108L506.502 146.311C502.845 142.165 497.727 139.483 492.121 139.727H444.834Z" fill="url(#paint0_linear_3_161)"/>
<path d="M428.26 233.61C428.26 237.267 431.185 239.95 434.841 239.95H473.596C502.602 239.95 509.427 254.337 527.22 289.695L583.525 289.452C583.525 289.452 583.525 285.306 583.525 278.234L583.282 179.475C583.282 130.461 574.507 99.4915 551.351 50.4774C547.939 43.1619 540.383 38.5287 532.339 38.5287L448.491 38.7725C446.541 38.7725 445.078 39.9918 444.591 41.6988C428.016 104.612 428.016 207.03 428.26 233.61ZM444.835 139.727L452.391 51.4528C452.391 50.2336 453.609 49.2582 454.828 49.2582L534.045 49.0143C538.676 49.0143 542.82 51.4528 545.014 55.5983C567.194 97.7846 571.826 136.313 571.826 158.503V181.913C571.826 185.327 569.144 188.009 565.732 188.009H546.476C543.307 188.009 540.139 186.546 538.189 184.108L506.502 146.311C502.846 142.165 497.727 139.483 492.121 139.727H444.835Z" fill="url(#paint1_linear_3_161)"/>
<path d="M455.559 52.1842L534.289 51.9404C537.701 51.9404 540.87 53.8912 542.576 56.8175C565.488 100.467 569.144 139.239 569.144 158.26V181.669C569.144 183.376 567.682 184.839 565.975 184.839H546.72C544.282 184.839 542.088 183.864 540.626 182.157L508.939 144.36C504.796 139.483 498.702 136.557 492.121 136.557H448.247L455.559 52.1842ZM455.072 49.2581C453.853 49.2581 452.634 50.2334 452.634 51.4527L445.078 139.727H492.365C497.971 139.727 503.089 142.165 506.745 146.311L538.432 184.108C540.382 186.546 543.551 188.01 546.72 188.01H565.975C569.388 188.01 572.069 185.327 572.069 181.913V158.503C572.069 136.313 567.438 97.7845 545.257 55.5982C543.063 51.4527 538.92 49.0142 534.289 49.0142L455.072 49.2581Z" fill="#822626"/>
<path opacity="0.4" d="M583.281 231.659V278.235L668.348 277.991C667.373 265.798 665.18 254.093 661.523 243.12C660.061 238.731 656.405 235.56 651.774 234.829C633.005 232.634 609.118 231.659 583.281 231.659ZM755.365 277.991H797.533C798.264 267.749 798.996 251.167 799.727 232.39C789.49 232.878 779.984 233.853 771.452 235.073C766.821 235.804 763.165 238.974 761.703 243.364C758.29 254.093 756.34 265.798 755.365 277.991Z" fill="#CD2827"/>
<path d="M583.525 325.054L780.715 324.566C794.121 324.566 805.089 313.593 805.089 300.181V296.036C805.089 292.134 801.921 289.208 798.264 289.208L583.769 289.695L583.525 325.054Z" fill="#EE4D47"/>
<path d="M547.207 325.054H583.525V289.696H527.707L533.801 314.325C535.263 320.665 540.87 325.054 547.207 325.054Z" fill="#CD2827"/>
<path d="M460.434 196.057C468.722 196.301 484.809 198.008 484.809 203.86C484.809 209.712 470.672 211.663 459.216 211.663C447.76 211.663 446.541 205.323 445.566 202.641C444.835 199.958 444.103 195.813 460.434 196.057Z" fill="#CD2827"/>
<path d="M461.166 202.397C457.266 202.397 453.122 201.177 451.172 199.227C452.635 198.495 454.829 197.764 458.241 197.764C464.578 197.764 474.816 198.495 480.178 200.934C479.447 201.421 477.497 202.397 474.328 202.397C470.428 202.397 465.31 202.397 461.166 202.397Z" fill="#9B1616"/>
<path d="M477.496 207.03C478.959 207.03 479.69 207.274 479.934 207.518C475.546 209.468 467.503 210.2 463.603 210.2C457.997 210.2 454.097 210.2 452.878 208.981C453.853 208.249 456.047 207.03 458.24 207.03C461.165 207.274 475.546 207.03 477.496 207.03Z" fill="#9B1616"/>
<path d="M583.525 278.478C583.525 285.55 583.525 289.695 583.525 289.695L797.777 289.208C797.777 289.208 798.021 285.062 798.508 277.991L583.525 278.478Z" fill="#822626"/>
<g opacity="0.2">
<path d="M675.904 229.22V275.796L747.809 275.552V228.976C747.809 223.368 742.69 218.979 736.353 218.979H687.116C681.023 219.222 675.904 223.856 675.904 229.22Z" fill="#822626"/>
</g>
<path d="M771.94 274.089H787.052C790.952 274.089 794.364 270.919 794.364 266.773V259.214C794.364 255.312 791.196 251.899 787.052 251.899H771.94C768.04 251.899 764.627 255.069 764.627 259.214V266.773C764.627 270.919 768.04 274.089 771.94 274.089Z" fill="white"/>
<path d="M628.861 274.577H643.974C647.873 274.577 651.286 271.407 651.286 267.261V259.702C651.286 255.8 648.117 252.386 643.974 252.386H628.861C624.961 252.386 621.549 255.556 621.549 259.702V267.261C621.549 271.163 624.718 274.577 628.861 274.577Z" fill="white"/>
<path d="M531.363 145.092C531.363 146.067 532.094 146.799 532.826 147.042C542.332 148.018 552.325 148.018 562.563 146.799C563.781 146.555 564.513 145.823 564.513 144.604C565.244 125.096 565.244 106.075 564.513 88.0305C564.513 86.8112 563.538 86.0797 562.563 85.8358C552.082 84.6166 541.601 84.6166 530.632 85.8358C529.657 86.0797 528.926 87.0551 528.926 88.0305C528.195 106.319 529.17 125.34 531.363 145.092Z" fill="#CD2827"/>
<path d="M569.143 162.405C569.875 162.405 570.606 161.917 570.85 161.186C571.337 160.211 570.85 158.991 569.875 158.504L553.3 150.456C550.863 149.237 549.156 146.555 549.156 143.872L548.913 82.6657C548.913 82.4218 549.156 82.4219 549.156 82.4219H559.394C560.612 82.4219 561.344 81.4464 561.344 80.471C561.344 79.2517 560.369 78.5202 559.394 78.5202H549.156C546.719 78.5202 544.769 80.471 544.769 82.9095L545.013 144.116C545.013 148.506 547.45 152.407 551.35 154.358L567.925 162.405C568.656 162.405 568.9 162.405 569.143 162.405Z" fill="#822626"/>
<path d="M680.93 327.942L749.91 327.792L749.865 307.065L680.885 307.215L680.93 327.942Z" fill="white"/>
<path opacity="0.8" d="M559.9 45.1184C575.012 79.7453 586.224 111.69 596.949 156.315L796.332 155.827C784.876 113.884 755.871 69.2596 743.927 52.9216C740.027 47.5569 736.615 42.9237 733.69 38.7782L563.556 39.266C560.631 39.5098 558.681 42.436 559.9 45.1184Z" fill="#8E6362"/>
<path d="M71.1732 327.98C71.1732 358.218 88.4791 382.603 109.929 382.359C131.378 382.359 148.44 357.974 148.44 327.736C148.44 297.499 131.134 273.114 109.685 273.358C88.2353 273.358 71.1732 297.743 71.1732 327.98Z" fill="black"/>
<path d="M109.929 363.826C124.066 363.826 135.278 347.732 135.278 327.736C135.278 307.984 123.822 291.89 109.685 291.89C95.5476 291.89 84.3353 307.984 84.3353 327.98C84.3353 347.976 95.7913 363.826 109.929 363.826ZM109.685 306.521C117.972 306.521 124.797 316.031 124.797 327.736C124.797 339.441 117.972 349.195 109.685 349.195C101.397 349.195 94.5726 339.685 94.5726 327.98C94.5726 316.032 101.397 306.521 109.685 306.521Z" fill="#625C5C"/>
<path d="M109.929 394.552C136.01 394.552 156.972 364.558 156.972 327.98C156.972 291.159 135.766 261.409 109.685 261.409C83.6043 261.409 62.6423 291.403 62.6423 327.98C62.6423 364.802 83.8481 394.552 109.929 394.552ZM109.685 273.358C131.135 273.358 148.441 297.743 148.441 327.736C148.441 357.73 131.378 382.359 109.929 382.359C88.4793 382.359 71.1733 357.974 71.1733 327.98C71.1733 297.987 88.2355 273.358 109.685 273.358Z" fill="#424242"/>
<path d="M103.347 327.98C103.347 322.859 106.272 318.958 109.685 318.958C113.341 318.958 116.022 323.103 116.266 327.98C116.266 333.101 113.341 337.003 109.929 337.003C106.272 337.003 103.347 332.857 103.347 327.98Z" fill="#8B8282"/>
<defs>
<linearGradient id="paint0_linear_3_161" x1="609.931" y1="-40.6307" x2="609.931" y2="297.04" gradientUnits="userSpaceOnUse">
<stop stop-color="#F4A984"/>
<stop offset="1" stop-color="#EE4D47"/>
</linearGradient>
<linearGradient id="paint1_linear_3_161" x1="505.868" y1="-288.354" x2="505.868" y2="296.573" gradientUnits="userSpaceOnUse">
<stop stop-color="#F4A984"/>
<stop offset="0.560769" stop-color="#EE4D47"/>
</linearGradient>
</defs>
</svg>
