<svg width="576" height="480" viewBox="0 0 576 480" fill="none" xmlns="http://www.w3.org/2000/svg">
<path d="M333.284 438.278C392.981 471.303 525.083 419.964 525.083 293.221C525.082 88.0853 338.12 53.071 228.521 53.071C31.9784 53.071 -40.1968 275.139 193.063 293.221C400.978 309.338 205.835 367.772 333.284 438.278Z" fill="#FCDDD4"/>
<mask id="mask0_4_362" style="mask-type:alpha" maskUnits="userSpaceOnUse" x="47" y="53" width="479" height="396">
<path d="M333.23 438.279C392.927 471.303 525.029 419.964 525.029 293.221C525.028 88.0854 338.066 53.0711 228.467 53.0711C31.9244 53.0711 -40.2507 275.139 193.009 293.221C400.924 309.338 205.781 367.772 333.23 438.279Z" fill="#F6A182"/>
</mask>
<g mask="url(#mask0_4_362)">
<path opacity="0.7" d="M58.3145 310.876C79.4709 283.391 135.507 229.795 190.399 235.292C259.014 242.164 128.645 371 190.399 371C252.153 371 281.314 212.961 325.914 212.961C370.514 212.961 276.168 329.772 325.914 336.644C375.661 343.515 416.83 171.733 471.722 170.015C526.614 168.298 415.114 310.876 504.314 310.876" stroke="url(#paint0_linear_4_362)" stroke-width="2"/>
<path d="M340.708 228.524C340.708 228.524 336.879 338.165 340.344 462.765C340.344 462.765 350.738 472.616 370.432 466.049C370.432 466.049 370.249 327.402 375.537 272.308C375.537 272.308 400.337 377.023 431.702 467.691C431.702 467.691 452.672 471.704 460.148 459.846C460.148 459.846 417.843 312.99 411.643 228.524H340.708Z" fill="url(#paint1_linear_4_362)"/>
<path d="M340.709 228.524H411.643C412.19 234.909 412.737 241.659 413.649 248.592C371.344 248.774 348.915 238.011 340.526 233.085C340.526 229.984 340.709 228.524 340.709 228.524Z" fill="#402B2B" fill-opacity="0.45" style="mix-blend-mode:multiply"/>
<path d="M169.561 274.685C169.561 295.138 181.34 311.664 195.827 311.664H222.093C236.58 311.664 248.224 295.003 248.224 274.685C248.224 254.232 236.445 237.707 221.958 237.707C221.687 237.707 221.552 237.707 221.281 237.707H195.827C181.205 237.707 169.561 254.232 169.561 274.685Z" fill="#F48767"/>
<path d="M-37.9924 271.57L67.7488 271.3L55.5635 264.121L-24.4532 264.256L-37.9924 271.57Z" fill="#402B2B"/>
<path d="M-137.777 211.295L-137.642 279.156L-51.803 279.021L-24.4538 264.256L55.5629 264.121L80.2043 278.75L254.86 278.343C257.703 278.343 260.005 276.041 260.005 273.196L259.87 210.482L-137.777 211.295Z" fill="#F36F49"/>
<path d="M49.3362 226.736L186.353 226.465L186.082 102.256C186.082 97.2445 182.02 93.1809 176.876 93.1809L48.9301 93.4518L49.3362 226.736Z" fill="#F48767"/>
<path d="M-164.313 227.278L49.2002 226.872L48.9294 93.5876L-155.513 93.9939C-160.522 93.9939 -164.584 98.0574 -164.584 103.205L-164.313 227.278Z" fill="#F06A5B"/>
<path d="M152.232 274.685C152.232 295.138 140.588 311.664 126.101 311.664H99.9707V299.202C90.3579 299.202 82.5051 288.23 82.5051 274.685C82.5051 261.14 90.2225 250.169 99.8353 250.169V237.707H125.966C140.453 237.843 152.097 254.368 152.232 274.685Z" fill="#F48767"/>
<path d="M78.3095 274.957C78.3095 291.753 87.9224 305.298 99.8369 305.162C111.751 305.162 121.229 291.617 121.229 274.821C121.229 258.025 111.616 244.48 99.7015 244.616C87.9224 244.616 78.3095 258.161 78.3095 274.957Z" fill="#F48767"/>
<path d="M99.835 294.867C107.688 294.867 113.916 285.928 113.916 274.821C113.916 263.714 107.552 254.909 99.6996 254.909C91.8468 254.909 85.6188 263.849 85.6188 274.956C85.6188 286.063 91.9822 294.867 99.835 294.867ZM99.835 263.036C104.438 263.036 108.229 268.319 108.229 274.821C108.229 281.322 104.438 286.74 99.835 286.74C95.2316 286.74 91.4406 281.458 91.4406 274.956C91.4406 268.319 95.0962 263.036 99.835 263.036Z" fill="#F7A58D"/>
<path d="M99.8354 311.799C114.322 311.799 125.966 295.139 125.966 274.821C125.966 254.503 114.187 237.843 99.7 237.843C85.2131 237.843 73.5693 254.503 73.5693 274.821C73.5693 295.139 85.4838 311.934 99.8354 311.799ZM99.7 244.615C111.615 244.615 121.227 258.16 121.227 274.821C121.227 291.617 111.75 305.162 99.8354 305.162C87.9209 305.162 78.308 291.617 78.308 274.956C78.308 258.16 87.9209 244.615 99.7 244.615Z" fill="#F7A58D"/>
<path d="M96.1803 274.821C96.1803 271.977 97.805 269.809 99.7005 269.809C101.596 269.809 103.221 272.112 103.356 274.821C103.356 277.665 101.731 279.833 99.8359 279.833C97.805 279.968 96.1803 277.665 96.1803 274.821Z" fill="#5B2929"/>
<path d="M277.063 173.504C277.063 174.046 277.469 174.452 277.876 174.588C278.959 174.858 283.021 174.858 284.239 174.452C284.781 174.317 285.322 173.91 285.322 173.233C285.728 162.397 285.728 151.832 285.322 141.808C285.322 141.131 284.781 140.725 284.239 140.589C282.885 140.183 278.146 139.912 276.657 140.454C276.116 140.589 275.709 141.131 275.709 141.673C275.439 151.967 275.845 162.532 277.063 173.504Z" fill="#F69276"/>
<path d="M270.43 183.121C270.566 183.121 270.701 183.121 270.972 182.985L280.179 178.38C282.345 177.296 283.699 175.129 283.699 172.691L283.563 138.693C283.563 137.338 282.48 136.254 281.126 136.254H255.808C255.131 136.254 254.725 136.796 254.725 137.338C254.725 138.015 255.266 138.422 255.808 138.422H281.126C281.262 138.422 281.262 138.557 281.262 138.557L281.397 172.555C281.397 174.181 280.449 175.535 279.095 176.213L269.889 180.818C269.347 181.089 269.076 181.766 269.347 182.308C269.618 182.985 270.024 183.121 270.43 183.121Z" fill="#F69276"/>
<path d="M67.7486 226.465C67.7486 226.465 71.2688 226.465 76.6845 226.465H98.2118C114.323 226.465 118.114 234.456 127.998 254.097L159.274 253.961C159.274 253.961 159.274 251.659 159.274 247.731L278.689 247.46C279.231 237.572 280.314 217.525 280.314 198.562C280.314 197.884 280.314 197.343 280.314 196.665C280.314 191.247 279.366 185.287 277.742 179.328C271.378 156.03 255.267 131.242 248.632 122.167C246.466 119.187 244.571 116.614 242.946 114.311C238.343 108.216 235.229 105.1 229.407 105.1L84.6726 105.507C81.694 105.507 78.9862 107.538 78.1738 110.383C65.7177 156.165 67.6132 190.976 67.7486 226.465ZM189.737 121.625C189.602 120.948 190.143 120.406 190.82 120.406L234.822 120.271C237.395 120.271 239.967 121.625 241.592 123.928C258.787 147.361 265.692 168.762 268.264 181.088L270.972 194.092C271.378 195.988 270.16 197.478 268.264 197.478H257.568C255.808 197.478 253.913 196.665 252.559 195.311L230.625 174.316C228.188 172.013 224.939 170.659 221.825 170.659H195.559L189.737 121.625Z" fill="#F36F49"/>
<path d="M166.989 179.735C167.937 184.069 169.02 188.539 169.968 193.28C170.645 196.531 173.488 198.833 176.738 198.969C219.522 200.459 254.994 200.594 280.313 198.698C280.313 198.021 280.313 197.479 280.313 196.802C280.313 191.383 279.365 185.424 277.74 179.464L166.989 179.735Z" fill="#F6977C"/>
<path d="M87.9207 120.542L131.923 120.407C134.496 120.407 136.797 121.761 138.016 124.064C150.336 147.497 152.909 168.898 152.909 181.224V194.228C152.909 196.124 151.42 197.614 149.524 197.614H138.828C137.068 197.614 135.308 196.801 134.225 195.447L116.624 174.452C114.593 172.149 111.75 170.659 108.636 170.795H82.3696L86.5667 121.761C86.5667 121.084 87.1083 120.542 87.9207 120.542Z" fill="#F36F49"/>
<path d="M67.7486 226.465C67.7486 226.465 71.2688 226.465 76.6845 226.465H98.2118C114.323 226.465 118.114 234.456 127.998 254.097L159.274 253.961C159.274 253.961 159.274 251.659 159.274 247.731L278.689 247.46C279.231 237.572 280.314 217.525 280.314 198.562C254.996 200.458 219.388 200.458 176.739 198.833C173.49 198.697 170.647 196.395 169.97 193.144C169.022 188.403 167.939 183.798 166.991 179.599C161.169 154.811 154.806 137.067 146.411 117.833C145.734 116.343 146.818 114.582 148.442 114.582L242.946 114.311C238.343 108.216 235.229 105.1 229.407 105.1L84.6726 105.507C81.694 105.507 78.9862 107.538 78.1738 110.383C65.7177 156.165 67.6132 190.976 67.7486 226.465ZM82.2356 170.794L86.4327 121.761C86.4327 121.084 87.1097 120.542 87.7866 120.542L131.789 120.406C134.361 120.406 136.663 121.761 137.882 124.064C150.202 147.497 152.775 168.898 152.775 181.224V194.227C152.775 196.124 151.286 197.614 149.39 197.614H138.694C136.934 197.614 135.174 196.801 134.091 195.446L116.49 174.451C114.459 172.149 111.616 170.659 108.502 170.794H82.2356Z" fill="#F7A58D"/>
<path d="M73.0277 222.943C73.0277 224.975 74.6524 226.465 76.6833 226.465H98.2106C114.322 226.465 118.113 234.457 127.997 254.097L159.273 253.962C159.273 253.962 159.273 251.659 159.273 247.731L159.137 192.873C159.137 165.647 154.263 148.445 141.401 121.219C139.505 117.156 135.308 114.582 130.84 114.582L84.2653 114.718C83.1821 114.718 82.3698 115.395 82.099 116.343C72.8923 151.29 72.8923 208.179 73.0277 222.943ZM82.2344 170.795L86.4315 121.761C86.4315 121.084 87.1085 120.542 87.7854 120.542L131.788 120.407C134.36 120.407 136.662 121.761 137.881 124.064C150.201 147.497 152.774 168.898 152.774 181.224V194.228C152.774 196.124 151.284 197.614 149.389 197.614H138.693C136.933 197.614 135.173 196.801 134.09 195.447L116.489 174.452C114.458 172.149 111.614 170.659 108.5 170.795H82.2344Z" fill="#F58A6B"/>
<path d="M88.1915 122.167L131.923 122.032C133.819 122.032 135.579 123.116 136.526 124.741C149.253 148.987 151.284 170.524 151.284 181.089V194.092C151.284 195.04 150.472 195.853 149.524 195.853H138.828C137.474 195.853 136.256 195.311 135.443 194.363L117.842 173.368C115.541 170.659 112.156 169.034 108.5 169.034H84.1297L88.1915 122.167ZM87.9207 120.542C87.2437 120.542 86.5667 121.084 86.5667 121.761L82.3696 170.795H108.636C111.75 170.795 114.593 172.149 116.624 174.452L134.225 195.447C135.308 196.801 137.068 197.614 138.828 197.614H149.524C151.42 197.614 152.909 196.124 152.909 194.228V181.224C152.909 168.898 150.336 147.497 138.016 124.064C136.797 121.761 134.496 120.407 131.923 120.407L87.9207 120.542Z" fill="#F7A58D"/>
<path d="M159.139 221.859V247.731L206.391 247.595C205.849 240.823 204.631 234.321 202.6 228.226C201.787 225.788 199.757 224.027 197.184 223.62C186.759 222.401 173.49 221.859 159.139 221.859ZM254.726 247.595H278.149C278.555 241.906 278.961 232.696 279.367 222.266C273.681 222.537 268.4 223.078 263.662 223.756C261.089 224.162 259.058 225.923 258.246 228.361C256.35 234.321 255.267 240.823 254.726 247.595Z" fill="#F6977C"/>
<path d="M159.273 273.738L268.806 273.467C276.252 273.467 282.345 267.371 282.345 259.921V257.619C282.345 255.452 280.585 253.826 278.554 253.826L159.409 254.097L159.273 273.738Z" fill="#F6977C"/>
<path d="M139.1 273.738H159.273V254.097H128.269L131.653 267.778C132.466 271.3 135.58 273.738 139.1 273.738Z" fill="#F7A58D"/>
<path d="M90.8995 202.084C95.5029 202.22 104.439 203.168 104.439 206.419C104.439 209.669 96.586 210.753 90.2226 210.753C83.8591 210.753 83.1822 207.231 82.6406 205.741C82.2344 204.251 81.8282 201.949 90.8995 202.084Z" fill="#F6977C"/>
<path d="M91.3061 205.606C89.1399 205.606 86.8382 204.928 85.7551 203.845C86.5674 203.438 87.786 203.032 89.6815 203.032C93.2016 203.032 98.8881 203.438 101.867 204.793C101.461 205.064 100.377 205.606 98.6173 205.606C96.451 205.606 93.6078 205.606 91.3061 205.606Z" fill="#F47B58"/>
<path d="M100.378 208.179C101.19 208.179 101.596 208.315 101.732 208.45C99.2945 209.534 94.8265 209.94 92.6602 209.94C89.5462 209.94 87.3799 209.94 86.703 209.263C87.2445 208.857 88.4631 208.179 89.6816 208.179C91.3063 208.315 99.2945 208.179 100.378 208.179Z" fill="#F47B58"/>
<path d="M159.273 247.866C159.273 251.794 159.273 254.097 159.273 254.097L278.283 253.826C278.283 253.826 278.418 251.523 278.689 247.595L159.273 247.866Z" fill="#F58A6B"/>
<g opacity="0.2">
<path d="M210.588 220.505V246.376L250.529 246.24V220.369C250.529 217.254 247.685 214.816 244.165 214.816H216.816C213.431 214.951 210.588 217.525 210.588 220.505Z" fill="#F16036"/>
</g>
<path d="M263.932 245.428H272.326C274.492 245.428 276.388 243.667 276.388 241.364V237.166C276.388 234.998 274.628 233.102 272.326 233.102H263.932C261.766 233.102 259.87 234.863 259.87 237.166V241.364C259.87 243.667 261.766 245.428 263.932 245.428Z" fill="white"/>
<path d="M184.454 245.699H192.849C195.015 245.699 196.911 243.938 196.911 241.636V237.437C196.911 235.27 195.15 233.373 192.849 233.373H184.454C182.288 233.373 180.393 235.134 180.393 237.437V241.636C180.393 243.803 182.153 245.699 184.454 245.699Z" fill="white"/>
<path d="M130.298 173.775C130.298 174.317 130.704 174.723 131.111 174.859C136.391 175.4 141.942 175.4 147.629 174.723C148.306 174.588 148.712 174.181 148.712 173.504C149.118 162.668 149.118 152.103 148.712 142.079C148.712 141.402 148.17 140.996 147.629 140.86C141.807 140.183 135.985 140.183 129.892 140.86C129.351 140.996 128.944 141.538 128.944 142.079C128.538 152.238 129.08 162.803 130.298 173.775Z" fill="#F7A58D"/>
<path d="M151.283 183.392C151.689 183.392 152.096 183.121 152.231 182.715C152.502 182.173 152.231 181.496 151.689 181.225L142.483 176.755C141.129 176.078 140.181 174.588 140.181 173.098L140.046 139.099C140.046 138.964 140.181 138.964 140.181 138.964H145.868C146.545 138.964 146.951 138.422 146.951 137.88C146.951 137.203 146.409 136.797 145.868 136.797H140.181C138.827 136.797 137.744 137.88 137.744 139.235L137.879 173.233C137.879 175.671 139.233 177.838 141.4 178.922L150.606 183.392C151.013 183.392 151.148 183.392 151.283 183.392Z" fill="#F69276"/>
<path d="M213.38 275.341L251.696 275.258L251.67 263.745L213.355 263.828L213.38 275.341Z" fill="#F8B4A0"/>
<path opacity="0.6" d="M146.15 118.243C154.544 137.477 160.772 155.221 166.73 180.008L277.48 179.737C271.117 156.44 255.005 131.652 248.371 122.577C246.205 119.597 244.309 117.024 242.684 114.721L148.181 114.992C146.556 115.127 145.473 116.753 146.15 118.243Z" fill="url(#paint2_linear_4_362)"/>
<path d="M566.226 381.429H457.797V465.155H566.226V381.429Z" fill="#8C5E5E"/>
<path d="M494.642 381.429H484.466V393.013H494.642V381.429Z" fill="#A3774A"/>
<path d="M495.12 381.429H386.691V465.155H495.12V381.429Z" fill="#F7A58D"/>
<path d="M495.294 381.429H455.818V465.155H495.294V381.429Z" fill="#F58A6B"/>
<path d="M481.785 381.429H471.609V393.013H481.785V381.429Z" fill="white"/>
<path d="M423.534 381.429H413.358V393.013H423.534V381.429Z" fill="white"/>
<path d="M522.772 300.154H414.344V383.881H522.772V300.154Z" fill="#F7A58D"/>
<path d="M522.947 300.154H483.471V383.881H522.947V300.154Z" fill="#F58A6B"/>
<path d="M509.438 300.154H499.261V311.739H509.438V300.154Z" fill="white"/>
<path d="M451.187 300.154H441.011V311.739H451.187V300.154Z" fill="white"/>
</g>
<path d="M347.82 44.8168H365.326L367.696 34.2358C367.696 34.2358 360.767 38.2493 359.126 35.5129C357.485 32.7764 357.849 33.871 356.208 34.2358C354.567 34.6007 354.567 32.4115 352.561 33.6885C350.373 35.148 347.091 42.0803 347.82 44.8168Z" fill="#6B1912"/>
<path d="M309.326 182.23L326.652 156.039L351.635 163.292C350.667 171.028 334.577 194.184 326.652 204.794L309.326 182.23Z" fill="url(#paint3_linear_4_362)"/>
<path d="M311.744 172.754C320.25 134.06 336.973 107.543 336.973 107.543C346.385 109.609 349.837 142.522 349.837 142.522C347.841 154.016 341.784 183.891 336.973 194.915L311.744 172.754Z" fill="url(#paint4_linear_4_362)"/>
<path d="M336.878 107.114C336.878 107.114 337.79 128.093 340.525 228.977C340.525 228.977 365.325 241.565 414.742 232.808C414.742 232.808 414.925 202.525 421.672 175.708C421.672 175.708 434.254 125.174 427.872 110.397C427.872 110.397 387.572 85.4043 336.878 107.114Z" fill="url(#paint5_linear_4_362)"/>
<path d="M375.172 87.1188L374.807 100.181C374.807 100.181 377.907 104.742 385.384 105.289C392.86 105.654 396.507 101.458 396.507 101.458L397.237 82.0107C387.937 86.0242 378.819 87.666 375.172 87.1188Z" fill="url(#paint6_linear_4_362)"/>
<path d="M375.902 81.7556L375.172 96.1676C378.819 96.7149 387.937 95.073 397.055 91.0595L397.602 81.7556H375.902V81.7556Z" fill="url(#paint7_linear_4_362)" style="mix-blend-mode:multiply"/>
<path d="M425.319 138.856C425.319 138.856 414.56 163.12 410.731 174.066C406.901 184.829 406.901 227.7 386.843 235.909C386.843 235.909 408.178 234.632 414.925 232.808C414.925 232.808 415.289 200.518 421.854 175.707C421.854 175.707 426.413 149.62 428.236 137.762L425.319 138.856Z" fill="#EE4D47" fill-opacity="0.29" style="mix-blend-mode:multiply"/>
<path d="M411.095 50.0128C410.73 50.1952 410.365 56.033 410.365 56.033L408.906 68.2558L402.159 73.5463L398.33 75.1881C398.33 75.1881 392.677 72.8165 393.407 70.6274C394.136 68.6206 397.783 39.7967 398.512 39.7967C399.242 39.7967 405.077 43.9926 405.077 43.9926L411.095 50.0128Z" fill="#402B2B"/>
<path d="M357.666 39.0667C356.025 39.0667 358.578 59.1341 358.578 59.1341L361.495 51.1072L363.501 41.4383L357.666 39.0667Z" fill="#402B2B"/>
<path d="M360.403 43.0804L357.303 68.8031C357.303 68.8031 356.209 90.5123 374.079 91.7893C391.949 92.8839 404.167 75.1882 404.167 75.1882C404.167 75.1882 406.355 77.7422 408.726 73.3638C410.914 68.9855 409.455 63.1477 406.355 62.6005C403.073 62.2356 401.614 64.0599 401.249 66.7963C400.884 69.5328 400.52 71.5395 400.52 71.5395L397.784 71.1747L399.79 50.0128C399.79 50.0128 395.596 41.8034 390.855 40.1615C386.114 38.5196 381.92 45.0871 381.92 45.0871C381.92 45.0871 377.544 45.9993 373.349 45.0871C369.155 44.175 366.42 43.0804 366.42 43.0804C366.42 43.0804 363.867 43.8101 360.403 43.0804Z" fill="url(#paint8_linear_4_362)"/>
<path d="M373.349 81.9381C379.367 82.303 380.278 75.3706 380.278 75.3706C380.278 75.3706 366.42 73.7288 366.055 73.5463C366.055 73.5463 364.961 81.3908 373.349 81.9381Z" fill="#893D43"/>
<path d="M379.732 77.5598C380.279 76.2828 380.461 75.3706 380.461 75.3706C380.461 75.3706 366.602 73.7288 366.238 73.5463C366.238 73.5463 366.055 74.4584 366.238 75.9179L379.732 77.5598Z" fill="#FFFEFF"/>
<path d="M379.183 36.5127V17.9047C390.306 18.452 401.794 20.6412 407.447 27.5735C414.194 35.7829 410.365 54.7557 410.365 54.7557C410.365 54.7557 402.159 53.8436 400.7 51.1071C399.241 48.3707 385.383 44.5396 374.806 45.0869C364.23 45.6342 359.124 44.5396 353.836 39.9788C352.742 39.0667 351.83 37.7897 351.101 36.3302H379.183V36.5127Z" fill="#402B2B"/>
<path d="M411.643 47.8235C411.643 47.8235 403.802 45.2695 390.672 44.1749C368.608 34.8709 359.126 36.5128 359.126 36.5128C359.126 36.5128 359.308 29.398 361.314 24.4724C363.32 19.5467 376.814 12.6144 388.12 13.709C399.425 14.8036 411.096 23.1953 412.919 31.2223C414.378 37.4249 411.643 47.8235 411.643 47.8235Z" fill="url(#paint9_linear_4_362)"/>
<path d="M398.332 45.087C395.962 33.7763 379.003 28.121 366.968 28.3034C355.115 28.4859 346.727 38.3371 345.45 45.087C344.903 47.8235 347.092 48.1884 347.821 45.8167C348.368 44.1749 349.462 36.3304 360.403 37.2425C371.344 38.1547 370.797 48.0059 376.268 48.9181C381.374 49.8303 387.209 46.1816 398.332 45.087Z" fill="url(#paint10_linear_4_362)"/>
<path d="M361.679 47.6409V46.3639C362.226 46.3639 366.42 45.8166 371.526 46.9112L371.343 48.9179C367.149 47.6409 361.679 47.6409 361.679 47.6409Z" fill="#402B2B"/>
<path d="M392.495 52.2018C389.213 50.3775 383.013 49.4653 383.013 49.2829L383.742 47.4585C383.925 47.4585 389.578 48.5531 393.225 50.9248L392.495 52.2018Z" fill="#402B2B"/>
<path d="M374.262 58.4045C374.262 58.4045 373.715 62.2356 372.256 63.3301C370.797 64.4247 368.244 65.3369 367.879 66.2491C367.515 66.9788 368.244 68.4382 369.885 68.9855C371.526 69.5328 371.709 70.0801 371.709 70.0801C371.709 70.0801 368.426 70.445 366.785 68.4382C365.144 66.4315 366.968 64.7896 368.609 63.8775C370.25 62.9653 370.979 62.6005 371.709 62.0532C372.621 61.5059 374.262 58.4045 374.262 58.4045Z" fill="#D87C60"/>
<path d="M382.102 60.4111C382.102 62.2354 383.379 63.8773 385.02 63.8773C386.661 63.8773 387.938 62.4178 387.938 60.4111C387.938 58.5868 386.661 56.9449 385.02 56.9449C383.379 56.9449 382.102 58.4043 382.102 60.4111Z" fill="#402B2B"/>
<path d="M362.044 58.0397C362.044 59.864 363.32 61.5058 364.961 61.5058C366.602 61.5058 367.879 60.0464 367.879 58.0397C367.879 56.2154 366.602 54.5735 364.961 54.5735C363.32 54.7559 362.044 56.2154 362.044 58.0397Z" fill="#402B2B"/>
<path d="M273.63 138.174C272.872 136.758 273.404 134.996 274.82 134.237V134.237C276.236 133.478 277.999 134.011 278.758 135.427L288.375 153.372L283.247 156.12L273.63 138.174Z" fill="white"/>
<path d="M275.486 141.554L280.569 138.83L291.56 159.34L286.477 162.064L275.486 141.554Z" fill="#822626"/>
<path d="M350.024 193.706C347.767 189.193 348.278 185.647 348.815 184.439C351.098 185.782 355.826 189.193 356.471 192.094C357.115 194.996 355.665 198.676 354.859 200.153C354.187 199.885 352.28 198.219 350.024 193.706Z" fill="url(#paint11_linear_4_362)"/>
<path d="M253.223 162.229C252.28 159.026 254.681 155.816 258.02 155.816H319.317C321.534 155.816 323.487 157.276 324.113 159.403L346.941 236.884C347.884 240.087 345.483 243.297 342.144 243.297H280.847C278.629 243.297 276.677 241.837 276.05 239.71L253.223 162.229Z" fill="white"/>
<path d="M251.974 158.278C251.136 155.106 253.527 152 256.808 152H318.187C320.457 152 322.441 153.528 323.021 155.722L346.151 243.203C346.989 246.375 344.597 249.481 341.317 249.481H279.938C277.668 249.481 275.684 247.953 275.104 245.759L251.974 158.278Z" fill="url(#paint12_linear_4_362)"/>
<path fill-rule="evenodd" clip-rule="evenodd" d="M415.656 191.944C428.967 172.606 430.791 114.046 430.791 114.046C418.542 115.639 412.692 127.764 408.934 135.552C407.098 139.359 405.761 142.13 404.42 142.13L398.779 177.992L342.368 188.065C342.321 188.13 342.275 188.195 342.229 188.259C339.452 188.331 329.807 188.875 323.508 192.886C323.508 192.886 320.246 195.332 322.121 197.046C323.018 198.025 322.732 199.086 322.446 200.146C322.161 201.206 321.875 202.267 322.772 203.246C323.529 204.073 323.647 204.927 323.763 205.769C323.922 206.922 324.078 208.049 325.87 209.04C325.87 209.04 325.543 211.65 327.908 212.712C328.015 212.76 328.128 212.812 328.247 212.865C330.745 213.99 335.618 216.184 336.552 215.328C336.903 215.006 337.779 214.37 338.762 213.656C340.519 212.379 342.618 210.855 342.67 210.437C342.752 209.784 342.589 208.642 340.468 208.478C340.468 208.478 342.508 208.071 344.628 206.604C346.831 205.3 349.197 201.875 349.197 201.875L351.342 196.974C403.608 201.429 415.656 191.944 415.656 191.944Z" fill="url(#paint13_linear_4_362)"/>
<path d="M400.338 140.863L395.232 167.681L393.944 174.43L348.815 184.439C350.964 186.319 355.181 192.014 354.859 199.75C368.827 201.765 400.23 203.86 414.091 196.124C416.618 194.153 422.293 187.054 424.773 174.43C441.002 118.607 427.873 110.397 427.873 110.397C409.638 112.769 400.338 140.863 400.338 140.863Z" fill="url(#paint14_linear_4_362)"/>
<path d="M241.882 320.843C240.535 314.64 238.314 308.775 235.352 303.382C234.948 302.64 234.477 301.831 234.006 301.09C230.573 295.36 226.332 290.236 221.419 285.787C220.813 285.18 220.14 284.64 219.467 284.101C214.216 279.719 208.225 276.146 201.763 273.584C200.956 273.247 200.148 272.978 199.34 272.708C192.878 270.416 185.878 269.135 178.675 269C178.271 269 177.8 269 177.396 269C176.992 269 176.521 269 176.117 269C168.848 269.135 161.914 270.416 155.452 272.708C154.645 272.978 153.837 273.315 153.029 273.584C146.567 276.146 140.576 279.719 135.326 284.101C134.653 284.64 133.98 285.247 133.374 285.787C128.46 290.236 124.152 295.36 120.786 301.09C120.315 301.831 119.911 302.64 119.44 303.382C116.478 308.775 114.257 314.64 112.911 320.843C112.709 321.719 112.574 322.596 112.372 323.472C111.699 327.247 111.363 331.09 111.363 335H243.363C243.363 331.09 243.026 327.18 242.353 323.472C242.218 322.596 242.084 321.719 241.882 320.843Z" fill="#FCDDD4"/>
<path d="M323.468 354.411C321.786 346.705 319.009 339.418 315.307 332.717C314.802 331.796 314.213 330.791 313.624 329.869C309.333 322.75 304.032 316.384 297.89 310.856C297.132 310.102 296.291 309.432 295.45 308.762C288.887 303.318 281.398 298.878 273.321 295.696C272.311 295.277 271.301 294.942 270.292 294.607C262.214 291.759 253.463 290.168 244.46 290C243.955 290 243.367 290 242.862 290C242.357 290 241.768 290 241.263 290C232.176 290.168 223.509 291.759 215.432 294.607C214.422 294.942 213.412 295.361 212.403 295.696C204.325 298.878 196.837 303.318 190.274 308.762C189.432 309.432 188.591 310.186 187.834 310.856C181.691 316.384 176.306 322.75 172.099 329.869C171.51 330.791 171.005 331.796 170.416 332.717C166.714 339.418 163.938 346.705 162.255 354.411C162.002 355.499 161.834 356.588 161.582 357.677C160.74 362.368 160.32 367.142 160.32 372H325.32C325.32 367.142 324.899 362.284 324.057 357.677C323.889 356.588 323.721 355.499 323.468 354.411Z" fill="white"/>
<path d="M343.74 338.029C332.771 338.029 328.658 328.427 328.658 315.053C328.658 301.678 324.887 290.704 310.147 290.018C290.951 289.333 292.665 307.851 292.665 330.485C292.665 359.291 282.382 340.773 267.985 356.891C255.645 370.608 271.413 394.957 276.212 402.158H338.256C340.312 398.386 345.454 389.127 351.282 377.81C364.307 353.804 354.71 338.029 343.74 338.029Z" fill="#F37753"/>
<path opacity="0.2" fill-rule="evenodd" clip-rule="evenodd" d="M314.261 342.487H311.176V385.495L298.217 368.209L295.749 370.061L311.176 390.639V402.158H314.261V369.664L327.333 353.444L324.932 351.506L314.261 364.747V342.487Z" fill="white"/>
<rect x="263.367" y="402" width="90" height="50" fill="#FCDDD4"/>
<defs>
<linearGradient id="paint0_linear_4_362" x1="281.314" y1="217.584" x2="281.314" y2="415.302" gradientUnits="userSpaceOnUse">
<stop stop-color="#F37753"/>
<stop offset="1" stop-color="white" stop-opacity="0"/>
</linearGradient>
<linearGradient id="paint1_linear_4_362" x1="399.521" y1="160.694" x2="399.521" y2="468.345" gradientUnits="userSpaceOnUse">
<stop stop-color="#822626"/>
<stop offset="0.943497" stop-color="#402B2B"/>
</linearGradient>
<linearGradient id="paint2_linear_4_362" x1="197.814" y1="94" x2="250.814" y2="221" gradientUnits="userSpaceOnUse">
<stop stop-color="#F7A58D"/>
<stop offset="0.926161" stop-color="white"/>
</linearGradient>
<linearGradient id="paint3_linear_4_362" x1="329.167" y1="156.039" x2="329.167" y2="204.011" gradientUnits="userSpaceOnUse">
<stop stop-color="#FFB3B6"/>
<stop offset="1" stop-color="#FFC8C1"/>
</linearGradient>
<linearGradient id="paint4_linear_4_362" x1="318.594" y1="201.765" x2="345.993" y2="116.342" gradientUnits="userSpaceOnUse">
<stop stop-color="#F4A984"/>
<stop offset="1" stop-color="#EE4D47"/>
</linearGradient>
<linearGradient id="paint5_linear_4_362" x1="383.278" y1="45.8286" x2="383.278" y2="231.179" gradientUnits="userSpaceOnUse">
<stop stop-color="#F4A984"/>
<stop offset="1" stop-color="#EE4D47"/>
</linearGradient>
<linearGradient id="paint6_linear_4_362" x1="393.495" y1="99.2404" x2="375.041" y2="107.199" gradientUnits="userSpaceOnUse">
<stop stop-color="#FFB3B6"/>
<stop offset="1" stop-color="#FFC8C1"/>
</linearGradient>
<linearGradient id="paint7_linear_4_362" x1="393.86" y1="90.0869" x2="375.302" y2="97.9458" gradientUnits="userSpaceOnUse">
<stop stop-color="#FFB3B6" stop-opacity="0.31"/>
<stop offset="1" stop-color="#FFC8C1"/>
</linearGradient>
<linearGradient id="paint8_linear_4_362" x1="354.926" y1="85.5432" x2="358.873" y2="50.2727" gradientUnits="userSpaceOnUse">
<stop stop-color="#FFB3B6"/>
<stop offset="1" stop-color="#FFC8C1"/>
</linearGradient>
<linearGradient id="paint9_linear_4_362" x1="386.237" y1="-4.78764" x2="386.237" y2="48.2554" gradientUnits="userSpaceOnUse">
<stop stop-color="#F4A984"/>
<stop offset="1" stop-color="#EE4D47"/>
</linearGradient>
<linearGradient id="paint10_linear_4_362" x1="387.623" y1="23.0469" x2="387.623" y2="78.1907" gradientUnits="userSpaceOnUse">
<stop stop-color="#F4A984"/>
<stop offset="1" stop-color="#EE4D47"/>
</linearGradient>
<linearGradient id="paint11_linear_4_362" x1="356.068" y1="185.245" x2="337.292" y2="192.679" gradientUnits="userSpaceOnUse">
<stop stop-color="#F4A984"/>
<stop offset="1" stop-color="#EE4D47"/>
</linearGradient>
<linearGradient id="paint12_linear_4_362" x1="347.314" y1="201" x2="169.314" y2="235" gradientUnits="userSpaceOnUse">
<stop stop-color="#F58A6B"/>
<stop offset="1" stop-color="#F7A58D"/>
</linearGradient>
<linearGradient id="paint13_linear_4_362" x1="412.832" y1="164.845" x2="318.299" y2="196.356" gradientUnits="userSpaceOnUse">
<stop stop-color="#FFB3B6"/>
<stop offset="1" stop-color="#FFC8C1"/>
</linearGradient>
<linearGradient id="paint14_linear_4_362" x1="380.244" y1="151.398" x2="435.318" y2="188.557" gradientUnits="userSpaceOnUse">
<stop stop-color="#F4A984"/>
<stop offset="1" stop-color="#EE4D47"/>
</linearGradient>
</defs>
</svg>
